# Blender 5.2.0 LTS
# www.blender.org
# mtllib sphere.mtl
o Sphere
v 0.000000 1.000000 0.000000
v 0.000000 0.831470 -0.555570
v 0.000000 0.555570 -0.831470
v 0.000000 0.195090 -0.980785
v 0.000000 0.000000 -1.000000
v 0.000000 -0.195090 -0.980785
v 0.000000 -0.555570 -0.831470
v 0.000000 -1.000000 0.000000
v 0.038060 0.980785 -0.191342
v 0.074658 0.923880 -0.375330
v 0.108386 0.831470 -0.544895
v 0.137950 0.707107 -0.693520
v 0.162212 0.555570 -0.815493
v 0.180240 0.382683 -0.906127
v 0.191342 0.195090 -0.961940
v 0.195090 0.000000 -0.980785
v 0.191342 -0.195090 -0.961940
v 0.180240 -0.382683 -0.906127
v 0.162212 -0.555570 -0.815493
v 0.137950 -0.707107 -0.693520
v 0.108386 -0.831470 -0.544895
v 0.074658 -0.923880 -0.375330
v 0.038060 -0.980785 -0.191342
v 0.074658 0.980785 -0.180240
v 0.146447 0.923880 -0.353553
v 0.212608 0.831470 -0.513280
v 0.270598 0.707107 -0.653281
v 0.318190 0.555570 -0.768178
v 0.353553 0.382683 -0.853553
v 0.375330 0.195090 -0.906127
v 0.382683 0.000000 -0.923879
v 0.375330 -0.195090 -0.906127
v 0.353553 -0.382683 -0.853553
v 0.318190 -0.555570 -0.768178
v 0.270598 -0.707107 -0.653281
v 0.212608 -0.831470 -0.513280
v 0.146447 -0.923880 -0.353553
v 0.074658 -0.980785 -0.180240
v 0.108386 0.980785 -0.162212
v 0.212608 0.923880 -0.318190
v 0.308658 0.831470 -0.461940
v 0.392847 0.707107 -0.587938
v 0.461940 0.555570 -0.691342
v 0.513280 0.382683 -0.768178
v 0.544895 0.195090 -0.815493
v 0.555570 0.000000 -0.831469
v 0.544895 -0.195090 -0.815493
v 0.513280 -0.382683 -0.768178
v 0.461940 -0.555570 -0.691342
v 0.392847 -0.707107 -0.587938
v 0.308658 -0.831470 -0.461940
v 0.212608 -0.923880 -0.318190
v 0.108386 -0.980785 -0.162212
v 0.137950 0.980785 -0.137950
v 0.270598 0.923880 -0.270598
v 0.392847 0.831470 -0.392847
v 0.500000 0.707107 -0.500000
v 0.587938 0.555570 -0.587938
v 0.653281 0.382683 -0.653281
v 0.693520 0.195090 -0.693520
v 0.707107 0.000000 -0.707107
v 0.693520 -0.195090 -0.693520
v 0.653281 -0.382683 -0.653281
v 0.587938 -0.555570 -0.587938
v 0.500000 -0.707107 -0.500000
v 0.392847 -0.831470 -0.392847
v 0.270598 -0.923880 -0.270598
v 0.137950 -0.980785 -0.137950
v 0.162212 0.980785 -0.108386
v 0.318190 0.923880 -0.212608
v 0.461940 0.831470 -0.308658
v 0.587938 0.707107 -0.392847
v 0.691342 0.555570 -0.461940
v 0.768178 0.382683 -0.513280
v 0.815493 0.195090 -0.544895
v 0.831470 0.000000 -0.555570
v 0.815493 -0.195090 -0.544895
v 0.768178 -0.382683 -0.513280
v 0.691342 -0.555570 -0.461940
v 0.587938 -0.707107 -0.392847
v 0.461940 -0.831470 -0.308658
v 0.318190 -0.923880 -0.212608
v 0.162212 -0.980785 -0.108386
v 0.180240 0.980785 -0.074658
v 0.353553 0.923880 -0.146447
v 0.513280 0.831470 -0.212607
v 0.653281 0.707107 -0.270598
v 0.768178 0.555570 -0.318190
v 0.853553 0.382683 -0.353553
v 0.906127 0.195090 -0.375330
v 0.923879 0.000000 -0.382683
v 0.906127 -0.195090 -0.375330
v 0.853553 -0.382683 -0.353553
v 0.768178 -0.555570 -0.318190
v 0.653281 -0.707107 -0.270598
v 0.513280 -0.831470 -0.212607
v 0.353553 -0.923880 -0.146447
v 0.180240 -0.980785 -0.074658
v 0.191342 0.980785 -0.038060
v 0.375330 0.923880 -0.074658
v 0.544895 0.831470 -0.108386
v 0.693520 0.707107 -0.137950
v 0.815493 0.555570 -0.162212
v 0.906127 0.382683 -0.180240
v 0.961940 0.195090 -0.191342
v 0.980785 0.000000 -0.195090
v 0.961940 -0.195090 -0.191342
v 0.906127 -0.382683 -0.180240
v 0.815493 -0.555570 -0.162212
v 0.693520 -0.707107 -0.137950
v 0.544895 -0.831470 -0.108386
v 0.375330 -0.923880 -0.074658
v 0.191342 -0.980785 -0.038060
v 0.195090 0.980785 0.000000
v 0.382683 0.923880 0.000000
v 0.555570 0.831470 0.000000
v 0.707107 0.707107 -0.000000
v 0.831469 0.555570 0.000000
v 0.923879 0.382683 -0.000000
v 0.980785 0.195090 0.000000
v 1.000000 0.000000 0.000000
v 0.980785 -0.195090 0.000000
v 0.923879 -0.382683 -0.000000
v 0.831469 -0.555570 0.000000
v 0.707107 -0.707107 -0.000000
v 0.555570 -0.831470 0.000000
v 0.382683 -0.923880 0.000000
v 0.195090 -0.980785 0.000000
v 0.191342 0.980785 0.038060
v 0.375330 0.923880 0.074658
v 0.544895 0.831470 0.108386
v 0.693520 0.707107 0.137950
v 0.815493 0.555570 0.162212
v 0.906127 0.382683 0.180240
v 0.961940 0.195090 0.191342
v 0.980785 0.000000 0.195090
v 0.961940 -0.195090 0.191342
v 0.906127 -0.382683 0.180240
v 0.815493 -0.555570 0.162212
v 0.693520 -0.707107 0.137950
v 0.544895 -0.831470 0.108386
v 0.375330 -0.923880 0.074658
v 0.191342 -0.980785 0.038060
v 0.180240 0.980785 0.074658
v 0.353553 0.923880 0.146447
v 0.513280 0.831470 0.212608
v 0.653281 0.707107 0.270598
v 0.768178 0.555570 0.318190
v 0.853553 0.382683 0.353553
v 0.906127 0.195090 0.375330
v 0.923879 0.000000 0.382683
v 0.906127 -0.195090 0.375330
v 0.853553 -0.382683 0.353553
v 0.768178 -0.555570 0.318190
v 0.653281 -0.707107 0.270598
v 0.513280 -0.831470 0.212608
v 0.353553 -0.923880 0.146447
v 0.180240 -0.980785 0.074658
v 0.162212 0.980785 0.108386
v 0.318190 0.923880 0.212608
v 0.461940 0.831470 0.308658
v 0.587938 0.707107 0.392847
v 0.691341 0.555570 0.461940
v 0.768178 0.382683 0.513280
v 0.815493 0.195090 0.544895
v 0.831469 0.000000 0.555570
v 0.815493 -0.195090 0.544895
v 0.768178 -0.382683 0.513280
v 0.691341 -0.555570 0.461940
v 0.587938 -0.707107 0.392847
v 0.461940 -0.831470 0.308658
v 0.318190 -0.923880 0.212608
v 0.162212 -0.980785 0.108386
v 0.137950 0.980785 0.137950
v 0.270598 0.923880 0.270598
v 0.392847 0.831470 0.392847
v 0.500000 0.707107 0.500000
v 0.587938 0.555570 0.587938
v 0.653281 0.382683 0.653281
v 0.693520 0.195090 0.693520
v 0.707106 0.000000 0.707107
v 0.693520 -0.195090 0.693520
v 0.653281 -0.382683 0.653281
v 0.587938 -0.555570 0.587938
v 0.500000 -0.707107 0.500000
v 0.392847 -0.831470 0.392847
v 0.270598 -0.923880 0.270598
v 0.137950 -0.980785 0.137950
v 0.108386 0.980785 0.162212
v 0.212607 0.923880 0.318190
v 0.308658 0.831470 0.461940
v 0.392847 0.707107 0.587938
v 0.461940 0.555570 0.691342
v 0.513280 0.382683 0.768178
v 0.544895 0.195090 0.815493
v 0.555570 0.000000 0.831469
v 0.544895 -0.195090 0.815493
v 0.513280 -0.382683 0.768178
v 0.461940 -0.555570 0.691342
v 0.392847 -0.707107 0.587938
v 0.308658 -0.831470 0.461940
v 0.212607 -0.923880 0.318190
v 0.108386 -0.980785 0.162212
v 0.074658 0.980785 0.180240
v 0.146447 0.923880 0.353553
v 0.212607 0.831470 0.513280
v 0.270598 0.707107 0.653281
v 0.318189 0.555570 0.768178
v 0.353553 0.382683 0.853553
v 0.375330 0.195090 0.906127
v 0.382683 0.000000 0.923879
v 0.375330 -0.195090 0.906127
v 0.353553 -0.382683 0.853553
v 0.318189 -0.555570 0.768178
v 0.270598 -0.707107 0.653281
v 0.212607 -0.831470 0.513280
v 0.146447 -0.923880 0.353553
v 0.074658 -0.980785 0.180240
v 0.038060 0.980785 0.191342
v 0.074658 0.923880 0.375330
v 0.108386 0.831470 0.544895
v 0.137950 0.707107 0.693520
v 0.162212 0.555570 0.815493
v 0.180240 0.382683 0.906127
v 0.191342 0.195090 0.961939
v 0.195090 0.000000 0.980785
v 0.191342 -0.195090 0.961939
v 0.180240 -0.382683 0.906127
v 0.162212 -0.555570 0.815493
v 0.137950 -0.707107 0.693520
v 0.108386 -0.831470 0.544895
v 0.074658 -0.923880 0.375330
v 0.038060 -0.980785 0.191342
v -0.000000 0.980785 0.195090
v -0.000000 0.923880 0.382683
v -0.000000 0.831470 0.555570
v -0.000000 0.707107 0.707107
v -0.000000 0.555570 0.831469
v 0.000000 0.382683 0.923879
v -0.000000 0.195090 0.980785
v -0.000000 0.000000 0.999999
v -0.000000 -0.195090 0.980785
v 0.000000 -0.382683 0.923879
v -0.000000 -0.555570 0.831469
v -0.000000 -0.707107 0.707107
v -0.000000 -0.831470 0.555570
v -0.000000 -0.923880 0.382683
v -0.000000 -0.980785 0.195090
v -0.038060 0.980785 0.191342
v -0.074658 0.923880 0.375330
v -0.108386 0.831470 0.544895
v -0.137950 0.707107 0.693520
v -0.162212 0.555570 0.815493
v -0.180240 0.382683 0.906127
v -0.191342 0.195090 0.961939
v -0.195091 0.000000 0.980785
v -0.191342 -0.195090 0.961939
v -0.180240 -0.382683 0.906127
v -0.162212 -0.555570 0.815493
v -0.137950 -0.707107 0.693520
v -0.108386 -0.831470 0.544895
v -0.074658 -0.923880 0.375330
v -0.038060 -0.980785 0.191342
v -0.074658 0.980785 0.180240
v -0.146447 0.923880 0.353553
v -0.212608 0.831470 0.513280
v -0.270598 0.707107 0.653281
v -0.318190 0.555570 0.768177
v -0.353553 0.382683 0.853553
v -0.375330 0.195090 0.906127
v -0.382683 0.000000 0.923879
v -0.375330 -0.195090 0.906127
v -0.353553 -0.382683 0.853553
v -0.318190 -0.555570 0.768177
v -0.270598 -0.707107 0.653281
v -0.212608 -0.831470 0.513280
v -0.146447 -0.923880 0.353553
v -0.074658 -0.980785 0.180240
v -0.108386 0.980785 0.162212
v -0.212608 0.923880 0.318190
v -0.308658 0.831470 0.461939
v -0.392847 0.707107 0.587938
v -0.461940 0.555570 0.691341
v -0.513280 0.382683 0.768178
v -0.544895 0.195090 0.815493
v -0.555570 0.000000 0.831469
v -0.544895 -0.195090 0.815493
v -0.513280 -0.382683 0.768178
v -0.461940 -0.555570 0.691341
v -0.392847 -0.707107 0.587938
v -0.308658 -0.831470 0.461939
v -0.212608 -0.923880 0.318190
v -0.108386 -0.980785 0.162212
v -0.137950 0.980785 0.137950
v -0.270598 0.923880 0.270598
v -0.392847 0.831470 0.392847
v -0.500000 0.707107 0.500000
v -0.587938 0.555570 0.587937
v -0.653281 0.382683 0.653281
v -0.693520 0.195090 0.693520
v -0.707106 0.000000 0.707106
v -0.693520 -0.195090 0.693520
v -0.653281 -0.382683 0.653281
v -0.587938 -0.555570 0.587937
v -0.500000 -0.707107 0.500000
v -0.392847 -0.831470 0.392847
v -0.270598 -0.923880 0.270598
v -0.137950 -0.980785 0.137950
v -0.162212 0.980785 0.108386
v -0.318190 0.923880 0.212607
v -0.461940 0.831470 0.308658
v -0.587938 0.707107 0.392847
v -0.691341 0.555570 0.461939
v -0.768177 0.382683 0.513280
v -0.815493 0.195090 0.544895
v -0.831469 0.000000 0.555569
v -0.815493 -0.195090 0.544895
v -0.768177 -0.382683 0.513280
v -0.691341 -0.555570 0.461939
v -0.587938 -0.707107 0.392847
v -0.461940 -0.831470 0.308658
v -0.318190 -0.923880 0.212607
v -0.162212 -0.980785 0.108386
v -0.180240 0.980785 0.074658
v -0.353553 0.923880 0.146447
v -0.513280 0.831470 0.212607
v -0.653281 0.707107 0.270598
v -0.768177 0.555570 0.318189
v -0.853553 0.382683 0.353553
v -0.906127 0.195090 0.375330
v -0.923879 0.000000 0.382683
v -0.906127 -0.195090 0.375330
v -0.853553 -0.382683 0.353553
v -0.768177 -0.555570 0.318189
v -0.653281 -0.707107 0.270598
v -0.513280 -0.831470 0.212607
v -0.353553 -0.923880 0.146447
v -0.180240 -0.980785 0.074658
v -0.191342 0.980785 0.038060
v -0.375330 0.923880 0.074658
v -0.544895 0.831470 0.108386
v -0.693520 0.707107 0.137950
v -0.815493 0.555570 0.162211
v -0.906127 0.382683 0.180240
v -0.961939 0.195090 0.191341
v -0.980784 0.000000 0.195090
v -0.961939 -0.195090 0.191341
v -0.906127 -0.382683 0.180240
v -0.815493 -0.555570 0.162211
v -0.693520 -0.707107 0.137950
v -0.544895 -0.831470 0.108386
v -0.375330 -0.923880 0.074658
v -0.191342 -0.980785 0.038060
v -0.195090 0.980785 -0.000000
v -0.382683 0.923880 -0.000000
v -0.555570 0.831470 -0.000000
v -0.707107 0.707107 -0.000000
v -0.831469 0.555570 -0.000000
v -0.923879 0.382683 -0.000000
v -0.980785 0.195090 -0.000000
v -0.999999 0.000000 -0.000000
v -0.980785 -0.195090 -0.000000
v -0.923879 -0.382683 -0.000000
v -0.831469 -0.555570 -0.000000
v -0.707107 -0.707107 -0.000000
v -0.555570 -0.831470 -0.000000
v -0.382683 -0.923880 -0.000000
v -0.195090 -0.980785 -0.000000
v -0.191342 0.980785 -0.038060
v -0.375330 0.923880 -0.074658
v -0.544895 0.831470 -0.108386
v -0.693520 0.707107 -0.137950
v -0.815493 0.555570 -0.162212
v -0.906127 0.382683 -0.180240
v -0.961939 0.195090 -0.191342
v -0.980784 0.000000 -0.195091
v -0.961939 -0.195090 -0.191342
v -0.906127 -0.382683 -0.180240
v -0.815493 -0.555570 -0.162212
v -0.693520 -0.707107 -0.137950
v -0.544895 -0.831470 -0.108386
v -0.375330 -0.923880 -0.074658
v -0.191342 -0.980785 -0.038060
v -0.180240 0.980785 -0.074658
v -0.353553 0.923880 -0.146447
v -0.513279 0.831470 -0.212607
v -0.653281 0.707107 -0.270598
v -0.768177 0.555570 -0.318190
v -0.853553 0.382683 -0.353553
v -0.906127 0.195090 -0.375330
v -0.923878 0.000000 -0.382683
v -0.906127 -0.195090 -0.375330
v -0.853553 -0.382683 -0.353553
v -0.768177 -0.555570 -0.318190
v -0.653281 -0.707107 -0.270598
v -0.513279 -0.831470 -0.212607
v -0.353553 -0.923880 -0.146447
v -0.180240 -0.980785 -0.074658
v -0.162212 0.980785 -0.108386
v -0.318189 0.923880 -0.212607
v -0.461939 0.831470 -0.308658
v -0.587938 0.707107 -0.392847
v -0.691341 0.555570 -0.461940
v -0.768177 0.382683 -0.513280
v -0.815493 0.195090 -0.544895
v -0.831468 0.000000 -0.555570
v -0.815493 -0.195090 -0.544895
v -0.768177 -0.382683 -0.513280
v -0.691341 -0.555570 -0.461940
v -0.587938 -0.707107 -0.392847
v -0.461939 -0.831470 -0.308658
v -0.318189 -0.923880 -0.212607
v -0.162212 -0.980785 -0.108386
v -0.137950 0.980785 -0.137950
v -0.270598 0.923880 -0.270598
v -0.392847 0.831470 -0.392847
v -0.500000 0.707107 -0.500000
v -0.587937 0.555570 -0.587938
v -0.653281 0.382683 -0.653281
v -0.693519 0.195090 -0.693520
v -0.707106 0.000000 -0.707106
v -0.693519 -0.195090 -0.693520
v -0.653281 -0.382683 -0.653281
v -0.587937 -0.555570 -0.587938
v -0.500000 -0.707107 -0.500000
v -0.392847 -0.831470 -0.392847
v -0.270598 -0.923880 -0.270598
v -0.137950 -0.980785 -0.137950
v -0.108386 0.980785 -0.162212
v -0.212607 0.923880 -0.318190
v -0.308658 0.831470 -0.461939
v -0.392847 0.707107 -0.587938
v -0.461939 0.555570 -0.691341
v -0.513280 0.382683 -0.768177
v -0.544895 0.195090 -0.815493
v -0.555569 0.000000 -0.831469
v -0.544895 -0.195090 -0.815493
v -0.513280 -0.382683 -0.768177
v -0.461939 -0.555570 -0.691341
v -0.392847 -0.707107 -0.587938
v -0.308658 -0.831470 -0.461939
v -0.212607 -0.923880 -0.318190
v -0.108386 -0.980785 -0.162212
v -0.074658 0.980785 -0.180240
v -0.146446 0.923880 -0.353553
v -0.212607 0.831470 -0.513279
v -0.270598 0.707107 -0.653281
v -0.318189 0.555570 -0.768177
v -0.353553 0.382683 -0.853553
v -0.375330 0.195090 -0.906127
v -0.382683 0.000000 -0.923879
v -0.375330 -0.195090 -0.906127
v -0.353553 -0.382683 -0.853553
v -0.318189 -0.555570 -0.768177
v -0.270598 -0.707107 -0.653281
v -0.212607 -0.831470 -0.513279
v -0.146446 -0.923880 -0.353553
v -0.074658 -0.980785 -0.180240
v -0.038060 0.980785 -0.191342
v -0.074658 0.923880 -0.375330
v -0.108386 0.831470 -0.544895
v -0.137950 0.707107 -0.693520
v -0.162211 0.555570 -0.815493
v -0.180240 0.382683 -0.906127
v -0.191341 0.195090 -0.961939
v -0.195090 0.000000 -0.980784
v -0.191341 -0.195090 -0.961939
v -0.180240 -0.382683 -0.906127
v -0.162211 -0.555570 -0.815493
v -0.137950 -0.707107 -0.693520
v -0.108386 -0.831470 -0.544895
v -0.074658 -0.923880 -0.375330
v -0.038060 -0.980785 -0.191342
v 0.000000 0.980785 -0.195090
v 0.000000 0.923880 -0.382683
v 0.000000 0.707107 -0.707107
v 0.000000 0.382683 -0.923879
v 0.000000 -0.382683 -0.923879
v 0.000000 -0.707107 -0.707107
v 0.000000 -0.831470 -0.555570
v 0.000000 -0.923880 -0.382683
v 0.000000 -0.980785 -0.195090
vn 0.0865 -0.4696 -0.8786
vn 0.0624 0.7715 -0.6332
vn 0.0759 -0.6326 -0.7708
vn 0.0759 0.6326 -0.7708
vn 0.0624 -0.7715 -0.6332
vn 0.0865 0.4696 -0.8786
vn 0.0464 -0.8810 -0.4709
vn 0.0938 0.2890 -0.9527
vn 0.0286 -0.9565 -0.2902
vn 0.0975 0.0975 -0.9904
vn 0.0097 0.9951 -0.0980
vn 0.0097 -0.9951 -0.0980
vn 0.0975 -0.0975 -0.9904
vn 0.0286 0.9565 -0.2902
vn 0.0938 -0.2890 -0.9527
vn 0.0464 0.8810 -0.4709
vn 0.2779 -0.2890 -0.9161
vn 0.1374 0.8810 -0.4528
vn 0.2563 -0.4696 -0.8448
vn 0.1847 0.7715 -0.6088
vn 0.2248 -0.6326 -0.7412
vn 0.2248 0.6326 -0.7412
vn 0.1847 -0.7715 -0.6088
vn 0.2563 0.4696 -0.8448
vn 0.1374 -0.8810 -0.4528
vn 0.2779 0.2890 -0.9161
vn 0.0846 -0.9565 -0.2790
vn 0.2889 0.0976 -0.9524
vn 0.0286 0.9951 -0.0942
vn 0.0286 -0.9951 -0.0942
vn 0.2889 -0.0976 -0.9524
vn 0.0846 0.9565 -0.2790
vn 0.2230 -0.8810 -0.4173
vn 0.4513 0.2890 -0.8443
vn 0.1374 -0.9565 -0.2571
vn 0.4691 0.0975 -0.8777
vn 0.0464 0.9951 -0.0869
vn 0.0464 -0.9951 -0.0869
vn 0.4691 -0.0975 -0.8777
vn 0.1374 0.9565 -0.2571
vn 0.4513 -0.2890 -0.8443
vn 0.2230 0.8810 -0.4173
vn 0.4162 -0.4696 -0.7786
vn 0.2999 0.7715 -0.5611
vn 0.3651 -0.6326 -0.6831
vn 0.3651 0.6326 -0.6831
vn 0.2999 -0.7715 -0.5611
vn 0.4162 0.4696 -0.7786
vn 0.3002 0.8810 -0.3658
vn 0.5601 -0.4696 -0.6825
vn 0.4036 0.7715 -0.4918
vn 0.4913 -0.6326 -0.5987
vn 0.4913 0.6326 -0.5987
vn 0.4036 -0.7715 -0.4918
vn 0.5601 0.4696 -0.6825
vn 0.3002 -0.8810 -0.3658
vn 0.6073 0.2890 -0.7400
vn 0.1850 -0.9565 -0.2254
vn 0.6314 0.0975 -0.7693
vn 0.0625 0.9951 -0.0761
vn 0.0625 -0.9951 -0.0761
vn 0.6314 -0.0975 -0.7693
vn 0.1850 0.9565 -0.2254
vn 0.6073 -0.2890 -0.7400
vn 0.7400 0.2890 -0.6073
vn 0.2254 -0.9565 -0.1850
vn 0.7693 0.0975 -0.6314
vn 0.0761 0.9951 -0.0625
vn 0.0761 -0.9951 -0.0625
vn 0.7693 -0.0975 -0.6314
vn 0.2254 0.9565 -0.1850
vn 0.7400 -0.2890 -0.6073
vn 0.3658 0.8810 -0.3002
vn 0.6825 -0.4696 -0.5601
vn 0.4918 0.7715 -0.4036
vn 0.5987 -0.6326 -0.4913
vn 0.5987 0.6326 -0.4913
vn 0.4918 -0.7715 -0.4036
vn 0.6825 0.4696 -0.5601
vn 0.3658 -0.8810 -0.3002
vn 0.7786 -0.4696 -0.4162
vn 0.5611 0.7715 -0.2999
vn 0.6831 -0.6326 -0.3651
vn 0.6831 0.6326 -0.3651
vn 0.5611 -0.7715 -0.2999
vn 0.7786 0.4696 -0.4162
vn 0.4173 -0.8810 -0.2230
vn 0.8443 0.2890 -0.4513
vn 0.2571 -0.9565 -0.1374
vn 0.8777 0.0975 -0.4691
vn 0.0869 0.9951 -0.0464
vn 0.0869 -0.9951 -0.0464
vn 0.8777 -0.0975 -0.4691
vn 0.2571 0.9565 -0.1374
vn 0.8443 -0.2890 -0.4513
vn 0.4173 0.8810 -0.2230
vn 0.2790 -0.9565 -0.0846
vn 0.9524 0.0975 -0.2889
vn 0.0942 0.9951 -0.0286
vn 0.0942 -0.9951 -0.0286
vn 0.9524 -0.0975 -0.2889
vn 0.2790 0.9565 -0.0846
vn 0.9161 -0.2890 -0.2779
vn 0.4528 0.8810 -0.1374
vn 0.8448 -0.4696 -0.2563
vn 0.6088 0.7715 -0.1847
vn 0.7412 -0.6326 -0.2248
vn 0.7412 0.6326 -0.2248
vn 0.6088 -0.7715 -0.1847
vn 0.8448 0.4696 -0.2563
vn 0.4528 -0.8810 -0.1374
vn 0.9161 0.2890 -0.2779
vn 0.7708 -0.6326 -0.0759
vn 0.7708 0.6326 -0.0759
vn 0.6332 -0.7715 -0.0624
vn 0.8786 0.4696 -0.0865
vn 0.4709 -0.8810 -0.0464
vn 0.9527 0.2890 -0.0938
vn 0.2902 -0.9565 -0.0286
vn 0.9904 0.0975 -0.0975
vn 0.0980 0.9951 -0.0097
vn 0.0980 -0.9951 -0.0097
vn 0.9904 -0.0975 -0.0975
vn 0.2902 0.9565 -0.0286
vn 0.9527 -0.2890 -0.0938
vn 0.4709 0.8810 -0.0464
vn 0.8786 -0.4696 -0.0865
vn 0.6332 0.7715 -0.0624
vn 0.0980 0.9951 0.0097
vn 0.0980 -0.9951 0.0097
vn 0.9904 -0.0975 0.0976
vn 0.2902 0.9565 0.0286
vn 0.9527 -0.2890 0.0938
vn 0.4709 0.8810 0.0464
vn 0.8786 -0.4696 0.0865
vn 0.6332 0.7715 0.0624
vn 0.7708 -0.6326 0.0759
vn 0.7708 0.6326 0.0759
vn 0.6332 -0.7715 0.0624
vn 0.8786 0.4696 0.0865
vn 0.4709 -0.8810 0.0464
vn 0.9527 0.2890 0.0938
vn 0.2902 -0.9565 0.0286
vn 0.9904 0.0975 0.0976
vn 0.7412 0.6326 0.2248
vn 0.6088 -0.7715 0.1847
vn 0.8448 0.4696 0.2563
vn 0.4528 -0.8810 0.1374
vn 0.9161 0.2890 0.2779
vn 0.2790 -0.9565 0.0846
vn 0.9524 0.0975 0.2889
vn 0.0942 0.9951 0.0286
vn 0.0942 -0.9951 0.0286
vn 0.9524 -0.0975 0.2889
vn 0.2790 0.9565 0.0846
vn 0.9161 -0.2890 0.2779
vn 0.4528 0.8810 0.1374
vn 0.8448 -0.4696 0.2563
vn 0.6088 0.7715 0.1847
vn 0.7412 -0.6326 0.2248
vn 0.8777 -0.0975 0.4691
vn 0.2571 0.9565 0.1374
vn 0.8443 -0.2890 0.4513
vn 0.4173 0.8810 0.2230
vn 0.7786 -0.4696 0.4162
vn 0.5611 0.7715 0.2999
vn 0.6831 -0.6326 0.3651
vn 0.6831 0.6326 0.3651
vn 0.5611 -0.7715 0.2999
vn 0.7786 0.4696 0.4162
vn 0.4173 -0.8810 0.2230
vn 0.8443 0.2890 0.4513
vn 0.2571 -0.9565 0.1374
vn 0.8777 0.0975 0.4691
vn 0.0869 0.9951 0.0464
vn 0.0869 -0.9951 0.0464
vn 0.4918 -0.7715 0.4036
vn 0.6825 0.4696 0.5601
vn 0.3658 -0.8810 0.3002
vn 0.7400 0.2890 0.6073
vn 0.2254 -0.9565 0.1850
vn 0.7693 0.0975 0.6314
vn 0.0761 0.9951 0.0625
vn 0.0761 -0.9951 0.0625
vn 0.7693 -0.0975 0.6314
vn 0.2254 0.9565 0.1850
vn 0.7400 -0.2890 0.6073
vn 0.3658 0.8810 0.3002
vn 0.6825 -0.4696 0.5601
vn 0.4918 0.7715 0.4036
vn 0.5987 -0.6326 0.4913
vn 0.5987 0.6326 0.4913
vn 0.1850 0.9565 0.2254
vn 0.6073 -0.2890 0.7400
vn 0.3002 0.8810 0.3658
vn 0.5601 -0.4696 0.6825
vn 0.4036 0.7715 0.4918
vn 0.4913 -0.6326 0.5987
vn 0.4913 0.6326 0.5987
vn 0.4036 -0.7715 0.4918
vn 0.5601 0.4696 0.6825
vn 0.3002 -0.8810 0.3658
vn 0.6073 0.2890 0.7400
vn 0.1850 -0.9565 0.2254
vn 0.6314 0.0975 0.7693
vn 0.0625 0.9951 0.0761
vn 0.0625 -0.9951 0.0761
vn 0.6314 -0.0975 0.7693
vn 0.4162 0.4696 0.7786
vn 0.2230 -0.8810 0.4173
vn 0.4513 0.2890 0.8443
vn 0.1374 -0.9565 0.2571
vn 0.4691 0.0975 0.8777
vn 0.0464 0.9951 0.0869
vn 0.0464 -0.9951 0.0869
vn 0.4691 -0.0975 0.8777
vn 0.1374 0.9565 0.2571
vn 0.4513 -0.2890 0.8443
vn 0.2230 0.8810 0.4173
vn 0.4162 -0.4696 0.7786
vn 0.2999 0.7715 0.5611
vn 0.3651 -0.6326 0.6831
vn 0.3651 0.6326 0.6831
vn 0.2999 -0.7715 0.5611
vn 0.2779 -0.2890 0.9161
vn 0.1374 0.8810 0.4528
vn 0.2563 -0.4696 0.8448
vn 0.1847 0.7715 0.6088
vn 0.2248 -0.6326 0.7412
vn 0.2248 0.6326 0.7412
vn 0.1847 -0.7715 0.6088
vn 0.2563 0.4696 0.8448
vn 0.1374 -0.8810 0.4528
vn 0.2779 0.2890 0.9161
vn 0.0846 -0.9565 0.2790
vn 0.2889 0.0975 0.9524
vn 0.0286 0.9951 0.0942
vn 0.0286 -0.9951 0.0942
vn 0.2889 -0.0975 0.9524
vn 0.0846 0.9565 0.2790
vn 0.0464 -0.8810 0.4709
vn 0.0938 0.2890 0.9527
vn 0.0286 -0.9565 0.2902
vn 0.0975 0.0975 0.9904
vn 0.0097 0.9951 0.0980
vn 0.0097 -0.9951 0.0980
vn 0.0975 -0.0975 0.9904
vn 0.0286 0.9565 0.2902
vn 0.0938 -0.2890 0.9527
vn 0.0464 0.8810 0.4709
vn 0.0865 -0.4696 0.8786
vn 0.0624 0.7715 0.6332
vn 0.0759 -0.6326 0.7708
vn 0.0759 0.6326 0.7708
vn 0.0624 -0.7715 0.6332
vn 0.0865 0.4696 0.8786
vn -0.0865 -0.4696 0.8786
vn -0.0624 0.7715 0.6332
vn -0.0759 -0.6326 0.7708
vn -0.0759 0.6326 0.7708
vn -0.0624 -0.7715 0.6332
vn -0.0865 0.4696 0.8786
vn -0.0464 -0.8810 0.4709
vn -0.0938 0.2890 0.9527
vn -0.0286 -0.9565 0.2902
vn -0.0976 0.0975 0.9904
vn -0.0097 0.9951 0.0980
vn -0.0097 -0.9951 0.0980
vn -0.0976 -0.0975 0.9904
vn -0.0286 0.9565 0.2902
vn -0.0938 -0.2890 0.9527
vn -0.0464 0.8810 0.4709
vn -0.0846 -0.9565 0.2790
vn -0.2889 0.0975 0.9524
vn -0.0286 0.9951 0.0942
vn -0.0286 -0.9951 0.0942
vn -0.2889 -0.0975 0.9524
vn -0.0846 0.9565 0.2790
vn -0.2779 -0.2890 0.9161
vn -0.1374 0.8810 0.4528
vn -0.2563 -0.4696 0.8448
vn -0.1847 0.7715 0.6088
vn -0.2248 -0.6326 0.7412
vn -0.2248 0.6326 0.7412
vn -0.1847 -0.7715 0.6088
vn -0.2563 0.4696 0.8448
vn -0.1374 -0.8810 0.4528
vn -0.2779 0.2890 0.9161
vn -0.2999 0.7715 0.5611
vn -0.3651 -0.6326 0.6831
vn -0.3651 0.6326 0.6831
vn -0.2999 -0.7715 0.5611
vn -0.4162 0.4696 0.7786
vn -0.2230 -0.8810 0.4173
vn -0.4513 0.2890 0.8443
vn -0.1374 -0.9565 0.2571
vn -0.4691 0.0975 0.8777
vn -0.0464 0.9951 0.0869
vn -0.0464 -0.9951 0.0869
vn -0.4691 -0.0975 0.8777
vn -0.1374 0.9565 0.2571
vn -0.4513 -0.2890 0.8443
vn -0.2230 0.8810 0.4173
vn -0.4162 -0.4696 0.7786
vn -0.6314 0.0975 0.7693
vn -0.0625 0.9951 0.0761
vn -0.0625 -0.9951 0.0761
vn -0.6314 -0.0975 0.7693
vn -0.1850 0.9565 0.2254
vn -0.6073 -0.2890 0.7400
vn -0.3002 0.8810 0.3658
vn -0.5601 -0.4696 0.6825
vn -0.4036 0.7715 0.4918
vn -0.4913 -0.6326 0.5987
vn -0.4913 0.6326 0.5987
vn -0.4036 -0.7715 0.4918
vn -0.5601 0.4696 0.6825
vn -0.3002 -0.8810 0.3658
vn -0.6073 0.2890 0.7400
vn -0.1850 -0.9565 0.2254
vn -0.5987 -0.6326 0.4913
vn -0.5987 0.6326 0.4913
vn -0.4918 -0.7715 0.4036
vn -0.6825 0.4696 0.5601
vn -0.3658 -0.8810 0.3002
vn -0.7400 0.2890 0.6073
vn -0.2254 -0.9565 0.1850
vn -0.7693 0.0975 0.6314
vn -0.0761 0.9951 0.0625
vn -0.0761 -0.9951 0.0625
vn -0.7693 -0.0975 0.6314
vn -0.2254 0.9565 0.1850
vn -0.7400 -0.2890 0.6073
vn -0.3658 0.8810 0.3002
vn -0.6825 -0.4696 0.5601
vn -0.4918 0.7715 0.4036
vn -0.0869 0.9951 0.0464
vn -0.0869 -0.9951 0.0464
vn -0.8777 -0.0975 0.4691
vn -0.2571 0.9565 0.1374
vn -0.8443 -0.2890 0.4513
vn -0.4173 0.8810 0.2230
vn -0.7786 -0.4696 0.4162
vn -0.5611 0.7715 0.2999
vn -0.6831 -0.6326 0.3651
vn -0.6831 0.6326 0.3651
vn -0.5611 -0.7715 0.2999
vn -0.7786 0.4696 0.4162
vn -0.4173 -0.8810 0.2230
vn -0.8443 0.2890 0.4513
vn -0.2571 -0.9565 0.1374
vn -0.8777 0.0975 0.4691
vn -0.7412 0.6326 0.2248
vn -0.6088 -0.7715 0.1847
vn -0.8448 0.4696 0.2563
vn -0.4528 -0.8810 0.1374
vn -0.9161 0.2890 0.2779
vn -0.2790 -0.9565 0.0846
vn -0.9524 0.0975 0.2889
vn -0.0942 0.9951 0.0286
vn -0.0942 -0.9951 0.0286
vn -0.9524 -0.0975 0.2889
vn -0.2790 0.9565 0.0846
vn -0.9161 -0.2890 0.2779
vn -0.4528 0.8810 0.1374
vn -0.8448 -0.4696 0.2563
vn -0.6088 0.7715 0.1847
vn -0.7412 -0.6326 0.2248
vn -0.9904 -0.0975 0.0975
vn -0.2902 0.9565 0.0286
vn -0.9527 -0.2890 0.0938
vn -0.4709 0.8810 0.0464
vn -0.8786 -0.4696 0.0865
vn -0.6332 0.7715 0.0624
vn -0.7708 -0.6326 0.0759
vn -0.7708 0.6326 0.0759
vn -0.6332 -0.7715 0.0624
vn -0.8786 0.4696 0.0865
vn -0.4709 -0.8810 0.0464
vn -0.9527 0.2890 0.0938
vn -0.2902 -0.9565 0.0286
vn -0.9904 0.0975 0.0975
vn -0.0980 0.9951 0.0097
vn -0.0980 -0.9951 0.0097
vn -0.6332 -0.7715 -0.0624
vn -0.8786 0.4696 -0.0865
vn -0.4709 -0.8810 -0.0464
vn -0.9527 0.2890 -0.0938
vn -0.2902 -0.9565 -0.0286
vn -0.9904 0.0975 -0.0976
vn -0.0980 0.9951 -0.0097
vn -0.0980 -0.9951 -0.0097
vn -0.9904 -0.0975 -0.0976
vn -0.2902 0.9565 -0.0286
vn -0.9527 -0.2890 -0.0938
vn -0.4709 0.8810 -0.0464
vn -0.8786 -0.4696 -0.0865
vn -0.6332 0.7715 -0.0624
vn -0.7708 -0.6326 -0.0759
vn -0.7708 0.6326 -0.0759
vn -0.9161 -0.2890 -0.2779
vn -0.4528 0.8810 -0.1374
vn -0.8448 -0.4696 -0.2563
vn -0.6088 0.7715 -0.1847
vn -0.7412 -0.6326 -0.2248
vn -0.7412 0.6326 -0.2248
vn -0.6088 -0.7715 -0.1847
vn -0.8448 0.4696 -0.2563
vn -0.4528 -0.8810 -0.1374
vn -0.9161 0.2890 -0.2779
vn -0.2790 -0.9565 -0.0846
vn -0.9524 0.0975 -0.2889
vn -0.0942 0.9951 -0.0286
vn -0.0942 -0.9951 -0.0286
vn -0.9524 -0.0975 -0.2889
vn -0.2790 0.9565 -0.0846
vn -0.4173 -0.8810 -0.2231
vn -0.8443 0.2890 -0.4513
vn -0.2571 -0.9565 -0.1374
vn -0.8777 0.0975 -0.4691
vn -0.0869 0.9951 -0.0464
vn -0.0869 -0.9951 -0.0464
vn -0.8777 -0.0975 -0.4691
vn -0.2571 0.9565 -0.1374
vn -0.8443 -0.2890 -0.4513
vn -0.4173 0.8810 -0.2231
vn -0.7786 -0.4696 -0.4162
vn -0.5611 0.7715 -0.2999
vn -0.6831 -0.6326 -0.3651
vn -0.6831 0.6326 -0.3651
vn -0.5611 -0.7715 -0.2999
vn -0.7786 0.4696 -0.4162
vn -0.3658 0.8810 -0.3002
vn -0.6825 -0.4696 -0.5601
vn -0.4918 0.7715 -0.4036
vn -0.5987 -0.6326 -0.4913
vn -0.5987 0.6326 -0.4913
vn -0.4918 -0.7715 -0.4036
vn -0.6825 0.4696 -0.5601
vn -0.3658 -0.8810 -0.3002
vn -0.7400 0.2890 -0.6073
vn -0.2254 -0.9565 -0.1850
vn -0.7693 0.0975 -0.6314
vn -0.0761 0.9951 -0.0625
vn -0.0761 -0.9951 -0.0625
vn -0.7693 -0.0975 -0.6314
vn -0.2254 0.9565 -0.1850
vn -0.7400 -0.2890 -0.6073
vn -0.6073 0.2890 -0.7400
vn -0.1850 -0.9565 -0.2254
vn -0.6314 0.0975 -0.7693
vn -0.0625 0.9951 -0.0761
vn -0.0625 -0.9951 -0.0761
vn -0.6314 -0.0975 -0.7693
vn -0.1850 0.9565 -0.2254
vn -0.6073 -0.2890 -0.7400
vn -0.3002 0.8810 -0.3658
vn -0.5601 -0.4696 -0.6825
vn -0.4036 0.7715 -0.4918
vn -0.4913 -0.6326 -0.5987
vn -0.4913 0.6326 -0.5987
vn -0.4036 -0.7715 -0.4918
vn -0.5601 0.4696 -0.6825
vn -0.3002 -0.8810 -0.3658
vn -0.4162 -0.4696 -0.7786
vn -0.2999 0.7715 -0.5611
vn -0.3651 -0.6326 -0.6831
vn -0.3651 0.6326 -0.6831
vn -0.2999 -0.7715 -0.5611
vn -0.4162 0.4696 -0.7786
vn -0.2230 -0.8810 -0.4173
vn -0.4513 0.2890 -0.8443
vn -0.1374 -0.9565 -0.2571
vn -0.4691 0.0975 -0.8777
vn -0.0464 0.9951 -0.0869
vn -0.0464 -0.9951 -0.0869
vn -0.4691 -0.0975 -0.8777
vn -0.1374 0.9565 -0.2571
vn -0.4513 -0.2890 -0.8443
vn -0.2230 0.8810 -0.4173
vn -0.0846 -0.9565 -0.2790
vn -0.2889 0.0975 -0.9524
vn -0.0286 0.9951 -0.0942
vn -0.0286 -0.9951 -0.0942
vn -0.2889 -0.0975 -0.9524
vn -0.0846 0.9565 -0.2790
vn -0.2779 -0.2890 -0.9161
vn -0.1374 0.8810 -0.4528
vn -0.2563 -0.4696 -0.8448
vn -0.1847 0.7715 -0.6088
vn -0.2248 -0.6326 -0.7412
vn -0.2248 0.6326 -0.7412
vn -0.1847 -0.7715 -0.6088
vn -0.2563 0.4696 -0.8448
vn -0.1374 -0.8810 -0.4528
vn -0.2779 0.2890 -0.9161
vn -0.0624 0.7715 -0.6332
vn -0.0759 -0.6326 -0.7708
vn -0.0759 0.6326 -0.7708
vn -0.0624 -0.7715 -0.6332
vn -0.0865 0.4696 -0.8786
vn -0.0464 -0.8810 -0.4709
vn -0.0938 0.2890 -0.9527
vn -0.0286 -0.9565 -0.2902
vn -0.0976 0.0975 -0.9904
vn -0.0097 0.9951 -0.0980
vn -0.0097 -0.9951 -0.0980
vn -0.0976 -0.0975 -0.9904
vn -0.0286 0.9565 -0.2902
vn -0.0938 -0.2890 -0.9527
vn -0.0464 0.8810 -0.4709
vn -0.0865 -0.4696 -0.8786
vt 0.750000 0.312500
vt 0.750000 0.375000
vt 0.718750 0.375000
vt 0.718750 0.312500
vt 0.750000 0.750000
vt 0.750000 0.812500
vt 0.718750 0.812500
vt 0.718750 0.750000
vt 0.750000 0.250000
vt 0.718750 0.250000
vt 0.750000 0.687500
vt 0.718750 0.687500
vt 0.750000 0.187500
vt 0.718750 0.187500
vt 0.750000 0.625000
vt 0.718750 0.625000
vt 0.750000 0.125000
vt 0.718750 0.125000
vt 0.750000 0.562500
vt 0.718750 0.562500
vt 0.750000 0.062500
vt 0.718750 0.062500
vt 0.750000 0.500000
vt 0.718750 0.500000
vt 0.750000 0.937500
vt 0.734375 1.000000
vt 0.718750 0.937500
vt 0.734375 0.000000
vt 0.750000 0.437500
vt 0.718750 0.437500
vt 0.750000 0.875000
vt 0.718750 0.875000
vt 0.687500 0.437500
vt 0.687500 0.375000
vt 0.687500 0.875000
vt 0.687500 0.812500
vt 0.687500 0.312500
vt 0.687500 0.750000
vt 0.687500 0.250000
vt 0.687500 0.687500
vt 0.687500 0.187500
vt 0.687500 0.625000
vt 0.687500 0.125000
vt 0.687500 0.562500
vt 0.687500 0.062500
vt 0.687500 0.500000
vt 0.703125 1.000000
vt 0.687500 0.937500
vt 0.703125 0.000000
vt 0.656250 0.187500
vt 0.656250 0.125000
vt 0.656250 0.625000
vt 0.656250 0.562500
vt 0.656250 0.062500
vt 0.656250 0.500000
vt 0.671875 1.000000
vt 0.656250 0.937500
vt 0.671875 0.000000
vt 0.656250 0.437500
vt 0.656250 0.875000
vt 0.656250 0.375000
vt 0.656250 0.812500
vt 0.656250 0.312500
vt 0.656250 0.750000
vt 0.656250 0.250000
vt 0.656250 0.687500
vt 0.625000 0.875000
vt 0.625000 0.812500
vt 0.625000 0.375000
vt 0.625000 0.312500
vt 0.625000 0.750000
vt 0.625000 0.250000
vt 0.625000 0.687500
vt 0.625000 0.187500
vt 0.625000 0.625000
vt 0.625000 0.125000
vt 0.625000 0.562500
vt 0.625000 0.062500
vt 0.625000 0.500000
vt 0.640625 1.000000
vt 0.625000 0.937500
vt 0.640625 0.000000
vt 0.625000 0.437500
vt 0.593750 0.625000
vt 0.593750 0.562500
vt 0.593750 0.125000
vt 0.593750 0.062500
vt 0.593750 0.500000
vt 0.609375 1.000000
vt 0.593750 0.937500
vt 0.609375 0.000000
vt 0.593750 0.437500
vt 0.593750 0.875000
vt 0.593750 0.375000
vt 0.593750 0.812500
vt 0.593750 0.312500
vt 0.593750 0.750000
vt 0.593750 0.250000
vt 0.593750 0.687500
vt 0.593750 0.187500
vt 0.562500 0.375000
vt 0.562500 0.312500
vt 0.562500 0.812500
vt 0.562500 0.750000
vt 0.562500 0.250000
vt 0.562500 0.687500
vt 0.562500 0.187500
vt 0.562500 0.625000
vt 0.562500 0.125000
vt 0.562500 0.562500
vt 0.562500 0.062500
vt 0.562500 0.500000
vt 0.578125 1.000000
vt 0.562500 0.937500
vt 0.578125 0.000000
vt 0.562500 0.437500
vt 0.562500 0.875000
vt 0.531250 0.125000
vt 0.531250 0.062500
vt 0.531250 0.562500
vt 0.531250 0.500000
vt 0.546875 1.000000
vt 0.531250 0.937500
vt 0.546875 0.000000
vt 0.531250 0.437500
vt 0.531250 0.875000
vt 0.531250 0.375000
vt 0.531250 0.812500
vt 0.531250 0.312500
vt 0.531250 0.750000
vt 0.531250 0.250000
vt 0.531250 0.687500
vt 0.531250 0.187500
vt 0.531250 0.625000
vt 0.500000 0.312500
vt 0.500000 0.250000
vt 0.500000 0.750000
vt 0.500000 0.687500
vt 0.500000 0.187500
vt 0.500000 0.625000
vt 0.500000 0.125000
vt 0.500000 0.562500
vt 0.500000 0.062500
vt 0.500000 0.500000
vt 0.515625 1.000000
vt 0.500000 0.937500
vt 0.515625 0.000000
vt 0.500000 0.437500
vt 0.500000 0.875000
vt 0.500000 0.375000
vt 0.500000 0.812500
vt 0.484375 1.000000
vt 0.468750 0.937500
vt 0.484375 0.000000
vt 0.468750 0.062500
vt 0.468750 0.500000
vt 0.468750 0.437500
vt 0.468750 0.875000
vt 0.468750 0.375000
vt 0.468750 0.812500
vt 0.468750 0.312500
vt 0.468750 0.750000
vt 0.468750 0.250000
vt 0.468750 0.687500
vt 0.468750 0.187500
vt 0.468750 0.625000
vt 0.468750 0.125000
vt 0.468750 0.562500
vt 0.437500 0.750000
vt 0.437500 0.687500
vt 0.437500 0.250000
vt 0.437500 0.187500
vt 0.437500 0.625000
vt 0.437500 0.125000
vt 0.437500 0.562500
vt 0.437500 0.062500
vt 0.437500 0.500000
vt 0.453125 1.000000
vt 0.437500 0.937500
vt 0.453125 0.000000
vt 0.437500 0.437500
vt 0.437500 0.875000
vt 0.437500 0.375000
vt 0.437500 0.812500
vt 0.437500 0.312500
vt 0.406250 0.500000
vt 0.406250 0.437500
vt 0.406250 0.937500
vt 0.406250 0.875000
vt 0.406250 0.375000
vt 0.406250 0.812500
vt 0.406250 0.312500
vt 0.406250 0.750000
vt 0.406250 0.250000
vt 0.406250 0.687500
vt 0.406250 0.187500
vt 0.406250 0.625000
vt 0.406250 0.125000
vt 0.406250 0.562500
vt 0.406250 0.062500
vt 0.421875 1.000000
vt 0.421875 0.000000
vt 0.375000 0.250000
vt 0.375000 0.187500
vt 0.375000 0.687500
vt 0.375000 0.625000
vt 0.375000 0.125000
vt 0.375000 0.562500
vt 0.375000 0.062500
vt 0.375000 0.500000
vt 0.390625 1.000000
vt 0.375000 0.937500
vt 0.390625 0.000000
vt 0.375000 0.437500
vt 0.375000 0.875000
vt 0.375000 0.375000
vt 0.375000 0.812500
vt 0.375000 0.312500
vt 0.375000 0.750000
vt 0.343750 0.937500
vt 0.343750 0.875000
vt 0.343750 0.437500
vt 0.343750 0.375000
vt 0.343750 0.812500
vt 0.343750 0.312500
vt 0.343750 0.750000
vt 0.343750 0.250000
vt 0.343750 0.687500
vt 0.343750 0.187500
vt 0.343750 0.625000
vt 0.343750 0.125000
vt 0.343750 0.562500
vt 0.343750 0.062500
vt 0.343750 0.500000
vt 0.359375 1.000000
vt 0.359375 0.000000
vt 0.312500 0.687500
vt 0.312500 0.625000
vt 0.312500 0.187500
vt 0.312500 0.125000
vt 0.312500 0.562500
vt 0.312500 0.062500
vt 0.312500 0.500000
vt 0.328125 1.000000
vt 0.312500 0.937500
vt 0.328125 0.000000
vt 0.312500 0.437500
vt 0.312500 0.875000
vt 0.312500 0.375000
vt 0.312500 0.812500
vt 0.312500 0.312500
vt 0.312500 0.750000
vt 0.312500 0.250000
vt 0.281250 0.437500
vt 0.281250 0.375000
vt 0.281250 0.875000
vt 0.281250 0.812500
vt 0.281250 0.312500
vt 0.281250 0.750000
vt 0.281250 0.250000
vt 0.281250 0.687500
vt 0.281250 0.187500
vt 0.281250 0.625000
vt 0.281250 0.125000
vt 0.281250 0.562500
vt 0.281250 0.062500
vt 0.281250 0.500000
vt 0.296875 1.000000
vt 0.281250 0.937500
vt 0.296875 0.000000
vt 0.250000 0.187500
vt 0.250000 0.125000
vt 0.250000 0.625000
vt 0.250000 0.562500
vt 0.250000 0.062500
vt 0.250000 0.500000
vt 0.265625 1.000000
vt 0.250000 0.937500
vt 0.265625 0.000000
vt 0.250000 0.437500
vt 0.250000 0.875000
vt 0.250000 0.375000
vt 0.250000 0.812500
vt 0.250000 0.312500
vt 0.250000 0.750000
vt 0.250000 0.250000
vt 0.250000 0.687500
vt 0.218750 0.375000
vt 0.218750 0.312500
vt 0.218750 0.812500
vt 0.218750 0.750000
vt 0.218750 0.250000
vt 0.218750 0.687500
vt 0.218750 0.187500
vt 0.218750 0.625000
vt 0.218750 0.125000
vt 0.218750 0.562500
vt 0.218750 0.062500
vt 0.218750 0.500000
vt 0.234375 1.000000
vt 0.218750 0.937500
vt 0.234375 0.000000
vt 0.218750 0.437500
vt 0.218750 0.875000
vt 0.187500 0.125000
vt 0.187500 0.062500
vt 0.187500 0.562500
vt 0.187500 0.500000
vt 0.203125 1.000000
vt 0.187500 0.937500
vt 0.203125 0.000000
vt 0.187500 0.437500
vt 0.187500 0.875000
vt 0.187500 0.375000
vt 0.187500 0.812500
vt 0.187500 0.312500
vt 0.187500 0.750000
vt 0.187500 0.250000
vt 0.187500 0.687500
vt 0.187500 0.187500
vt 0.187500 0.625000
vt 0.156250 0.812500
vt 0.156250 0.750000
vt 0.156250 0.312500
vt 0.156250 0.250000
vt 0.156250 0.687500
vt 0.156250 0.187500
vt 0.156250 0.625000
vt 0.156250 0.125000
vt 0.156250 0.562500
vt 0.156250 0.062500
vt 0.156250 0.500000
vt 0.171875 1.000000
vt 0.156250 0.937500
vt 0.171875 0.000000
vt 0.156250 0.437500
vt 0.156250 0.875000
vt 0.156250 0.375000
vt 0.125000 0.562500
vt 0.125000 0.500000
vt 0.140625 1.000000
vt 0.125000 0.937500
vt 0.140625 0.000000
vt 0.125000 0.062500
vt 0.125000 0.437500
vt 0.125000 0.875000
vt 0.125000 0.375000
vt 0.125000 0.812500
vt 0.125000 0.312500
vt 0.125000 0.750000
vt 0.125000 0.250000
vt 0.125000 0.687500
vt 0.125000 0.187500
vt 0.125000 0.625000
vt 0.125000 0.125000
vt 0.093750 0.312500
vt 0.093750 0.250000
vt 0.093750 0.750000
vt 0.093750 0.687500
vt 0.093750 0.187500
vt 0.093750 0.625000
vt 0.093750 0.125000
vt 0.093750 0.562500
vt 0.093750 0.062500
vt 0.093750 0.500000
vt 0.109375 1.000000
vt 0.093750 0.937500
vt 0.109375 0.000000
vt 0.093750 0.437500
vt 0.093750 0.875000
vt 0.093750 0.375000
vt 0.093750 0.812500
vt 0.078125 1.000000
vt 0.062500 0.937500
vt 0.078125 0.000000
vt 0.062500 0.062500
vt 0.062500 0.500000
vt 0.062500 0.437500
vt 0.062500 0.875000
vt 0.062500 0.375000
vt 0.062500 0.812500
vt 0.062500 0.312500
vt 0.062500 0.750000
vt 0.062500 0.250000
vt 0.062500 0.687500
vt 0.062500 0.187500
vt 0.062500 0.625000
vt 0.062500 0.125000
vt 0.062500 0.562500
vt 0.031250 0.750000
vt 0.031250 0.687500
vt 0.031250 0.250000
vt 0.031250 0.187500
vt 0.031250 0.625000
vt 0.031250 0.125000
vt 0.031250 0.562500
vt 0.031250 0.062500
vt 0.031250 0.500000
vt 0.046875 1.000000
vt 0.031250 0.937500
vt 0.046875 0.000000
vt 0.031250 0.437500
vt 0.031250 0.875000
vt 0.031250 0.375000
vt 0.031250 0.812500
vt 0.031250 0.312500
vt 0.000000 0.500000
vt 0.000000 0.437500
vt 0.000000 0.937500
vt 0.000000 0.875000
vt 0.000000 0.375000
vt 0.000000 0.812500
vt 0.000000 0.312500
vt 0.000000 0.750000
vt 0.000000 0.250000
vt 0.000000 0.687500
vt 0.000000 0.187500
vt 0.000000 0.625000
vt 0.000000 0.125000
vt 0.000000 0.562500
vt 0.000000 0.062500
vt 0.015625 1.000000
vt 0.015625 0.000000
vt 1.000000 0.187500
vt 1.000000 0.250000
vt 0.968750 0.250000
vt 0.968750 0.187500
vt 1.000000 0.625000
vt 1.000000 0.687500
vt 0.968750 0.687500
vt 0.968750 0.625000
vt 1.000000 0.125000
vt 0.968750 0.125000
vt 1.000000 0.562500
vt 0.968750 0.562500
vt 1.000000 0.062500
vt 0.968750 0.062500
vt 1.000000 0.500000
vt 0.968750 0.500000
vt 1.000000 0.937500
vt 0.984375 1.000000
vt 0.968750 0.937500
vt 0.984375 0.000000
vt 1.000000 0.437500
vt 0.968750 0.437500
vt 1.000000 0.875000
vt 0.968750 0.875000
vt 1.000000 0.375000
vt 0.968750 0.375000
vt 1.000000 0.812500
vt 0.968750 0.812500
vt 1.000000 0.312500
vt 0.968750 0.312500
vt 1.000000 0.750000
vt 0.968750 0.750000
vt 0.937500 0.437500
vt 0.937500 0.375000
vt 0.937500 0.875000
vt 0.937500 0.812500
vt 0.937500 0.312500
vt 0.937500 0.750000
vt 0.937500 0.250000
vt 0.937500 0.687500
vt 0.937500 0.187500
vt 0.937500 0.625000
vt 0.937500 0.125000
vt 0.937500 0.562500
vt 0.937500 0.062500
vt 0.937500 0.500000
vt 0.953125 1.000000
vt 0.937500 0.937500
vt 0.953125 0.000000
vt 0.906250 0.187500
vt 0.906250 0.125000
vt 0.906250 0.625000
vt 0.906250 0.562500
vt 0.906250 0.062500
vt 0.906250 0.500000
vt 0.921875 1.000000
vt 0.906250 0.937500
vt 0.921875 0.000000
vt 0.906250 0.437500
vt 0.906250 0.875000
vt 0.906250 0.375000
vt 0.906250 0.812500
vt 0.906250 0.312500
vt 0.906250 0.750000
vt 0.906250 0.250000
vt 0.906250 0.687500
vt 0.875000 0.875000
vt 0.875000 0.812500
vt 0.875000 0.375000
vt 0.875000 0.312500
vt 0.875000 0.750000
vt 0.875000 0.250000
vt 0.875000 0.687500
vt 0.875000 0.187500
vt 0.875000 0.625000
vt 0.875000 0.125000
vt 0.875000 0.562500
vt 0.875000 0.062500
vt 0.875000 0.500000
vt 0.890625 1.000000
vt 0.875000 0.937500
vt 0.890625 0.000000
vt 0.875000 0.437500
vt 0.843750 0.625000
vt 0.843750 0.562500
vt 0.843750 0.125000
vt 0.843750 0.062500
vt 0.843750 0.500000
vt 0.859375 1.000000
vt 0.843750 0.937500
vt 0.859375 0.000000
vt 0.843750 0.437500
vt 0.843750 0.875000
vt 0.843750 0.375000
vt 0.843750 0.812500
vt 0.843750 0.312500
vt 0.843750 0.750000
vt 0.843750 0.250000
vt 0.843750 0.687500
vt 0.843750 0.187500
vt 0.812500 0.375000
vt 0.812500 0.312500
vt 0.812500 0.812500
vt 0.812500 0.750000
vt 0.812500 0.250000
vt 0.812500 0.687500
vt 0.812500 0.187500
vt 0.812500 0.625000
vt 0.812500 0.125000
vt 0.812500 0.562500
vt 0.812500 0.062500
vt 0.812500 0.500000
vt 0.828125 1.000000
vt 0.812500 0.937500
vt 0.828125 0.000000
vt 0.812500 0.437500
vt 0.812500 0.875000
vt 0.781250 0.125000
vt 0.781250 0.062500
vt 0.781250 0.562500
vt 0.781250 0.500000
vt 0.796875 1.000000
vt 0.781250 0.937500
vt 0.796875 0.000000
vt 0.781250 0.437500
vt 0.781250 0.875000
vt 0.781250 0.375000
vt 0.781250 0.812500
vt 0.781250 0.312500
vt 0.781250 0.750000
vt 0.781250 0.250000
vt 0.781250 0.687500
vt 0.781250 0.187500
vt 0.781250 0.625000
vt 0.765625 1.000000
vt 0.765625 0.000000
s 0
f 7/1/1 478/2/1 18/3/1 19/4/1
f 476/5/2 2/6/2 11/7/2 12/8/2
f 479/9/3 7/1/3 19/4/3 20/10/3
f 3/11/4 476/5/4 12/8/4 13/12/4
f 480/13/5 479/9/5 20/10/5 21/14/5
f 477/15/6 3/11/6 13/12/6 14/16/6
f 481/17/7 480/13/7 21/14/7 22/18/7
f 4/19/8 477/15/8 14/16/8 15/20/8
f 482/21/9 481/17/9 22/18/9 23/22/9
f 5/23/10 4/19/10 15/20/10 16/24/10
f 474/25/11 1/26/11 9/27/11
f 8/28/12 482/21/12 23/22/12
f 6/29/13 5/23/13 16/24/13 17/30/13
f 475/31/14 474/25/14 9/27/14 10/32/14
f 478/2/15 6/29/15 17/30/15 18/3/15
f 2/6/16 475/31/16 10/32/16 11/7/16
f 18/3/17 17/30/17 32/33/17 33/34/17
f 11/7/18 10/32/18 25/35/18 26/36/18
f 19/4/19 18/3/19 33/34/19 34/37/19
f 12/8/20 11/7/20 26/36/20 27/38/20
f 20/10/21 19/4/21 34/37/21 35/39/21
f 13/12/22 12/8/22 27/38/22 28/40/22
f 21/14/23 20/10/23 35/39/23 36/41/23
f 14/16/24 13/12/24 28/40/24 29/42/24
f 22/18/25 21/14/25 36/41/25 37/43/25
f 15/20/26 14/16/26 29/42/26 30/44/26
f 23/22/27 22/18/27 37/43/27 38/45/27
f 16/24/28 15/20/28 30/44/28 31/46/28
f 9/27/29 1/47/29 24/48/29
f 8/49/30 23/22/30 38/45/30
f 17/30/31 16/24/31 31/46/31 32/33/31
f 10/32/32 9/27/32 24/48/32 25/35/32
f 37/43/33 36/41/33 51/50/33 52/51/33
f 30/44/34 29/42/34 44/52/34 45/53/34
f 38/45/35 37/43/35 52/51/35 53/54/35
f 31/46/36 30/44/36 45/53/36 46/55/36
f 24/48/37 1/56/37 39/57/37
f 8/58/38 38/45/38 53/54/38
f 32/33/39 31/46/39 46/55/39 47/59/39
f 25/35/40 24/48/40 39/57/40 40/60/40
f 33/34/41 32/33/41 47/59/41 48/61/41
f 26/36/42 25/35/42 40/60/42 41/62/42
f 34/37/43 33/34/43 48/61/43 49/63/43
f 27/38/44 26/36/44 41/62/44 42/64/44
f 35/39/45 34/37/45 49/63/45 50/65/45
f 28/40/46 27/38/46 42/64/46 43/66/46
f 36/41/47 35/39/47 50/65/47 51/50/47
f 29/42/48 28/40/48 43/66/48 44/52/48
f 41/62/49 40/60/49 55/67/49 56/68/49
f 49/63/50 48/61/50 63/69/50 64/70/50
f 42/64/51 41/62/51 56/68/51 57/71/51
f 50/65/52 49/63/52 64/70/52 65/72/52
f 43/66/53 42/64/53 57/71/53 58/73/53
f 51/50/54 50/65/54 65/72/54 66/74/54
f 44/52/55 43/66/55 58/73/55 59/75/55
f 52/51/56 51/50/56 66/74/56 67/76/56
f 45/53/57 44/52/57 59/75/57 60/77/57
f 53/54/58 52/51/58 67/76/58 68/78/58
f 46/55/59 45/53/59 60/77/59 61/79/59
f 39/57/60 1/80/60 54/81/60
f 8/82/61 53/54/61 68/78/61
f 47/59/62 46/55/62 61/79/62 62/83/62
f 40/60/63 39/57/63 54/81/63 55/67/63
f 48/61/64 47/59/64 62/83/64 63/69/64
f 60/77/65 59/75/65 74/84/65 75/85/65
f 68/78/66 67/76/66 82/86/66 83/87/66
f 61/79/67 60/77/67 75/85/67 76/88/67
f 54/81/68 1/89/68 69/90/68
f 8/91/69 68/78/69 83/87/69
f 62/83/70 61/79/70 76/88/70 77/92/70
f 55/67/71 54/81/71 69/90/71 70/93/71
f 63/69/72 62/83/72 77/92/72 78/94/72
f 56/68/73 55/67/73 70/93/73 71/95/73
f 64/70/74 63/69/74 78/94/74 79/96/74
f 57/71/75 56/68/75 71/95/75 72/97/75
f 65/72/76 64/70/76 79/96/76 80/98/76
f 58/73/77 57/71/77 72/97/77 73/99/77
f 66/74/78 65/72/78 80/98/78 81/100/78
f 59/75/79 58/73/79 73/99/79 74/84/79
f 67/76/80 66/74/80 81/100/80 82/86/80
f 79/96/81 78/94/81 93/101/81 94/102/81
f 72/97/82 71/95/82 86/103/82 87/104/82
f 80/98/83 79/96/83 94/102/83 95/105/83
f 73/99/84 72/97/84 87/104/84 88/106/84
f 81/100/85 80/98/85 95/105/85 96/107/85
f 74/84/86 73/99/86 88/106/86 89/108/86
f 82/86/87 81/100/87 96/107/87 97/109/87
f 75/85/88 74/84/88 89/108/88 90/110/88
f 83/87/89 82/86/89 97/109/89 98/111/89
f 76/88/90 75/85/90 90/110/90 91/112/90
f 69/90/91 1/113/91 84/114/91
f 8/115/92 83/87/92 98/111/92
f 77/92/93 76/88/93 91/112/93 92/116/93
f 70/93/94 69/90/94 84/114/94 85/117/94
f 78/94/95 77/92/95 92/116/95 93/101/95
f 71/95/96 70/93/96 85/117/96 86/103/96
f 98/111/97 97/109/97 112/118/97 113/119/97
f 91/112/98 90/110/98 105/120/98 106/121/98
f 84/114/99 1/122/99 99/123/99
f 8/124/100 98/111/100 113/119/100
f 92/116/101 91/112/101 106/121/101 107/125/101
f 85/117/102 84/114/102 99/123/102 100/126/102
f 93/101/103 92/116/103 107/125/103 108/127/103
f 86/103/104 85/117/104 100/126/104 101/128/104
f 94/102/105 93/101/105 108/127/105 109/129/105
f 87/104/106 86/103/106 101/128/106 102/130/106
f 95/105/107 94/102/107 109/129/107 110/131/107
f 88/106/108 87/104/108 102/130/108 103/132/108
f 96/107/109 95/105/109 110/131/109 111/133/109
f 89/108/110 88/106/110 103/132/110 104/134/110
f 97/109/111 96/107/111 111/133/111 112/118/111
f 90/110/112 89/108/112 104/134/112 105/120/112
f 110/131/113 109/129/113 124/135/113 125/136/113
f 103/132/114 102/130/114 117/137/114 118/138/114
f 111/133/115 110/131/115 125/136/115 126/139/115
f 104/134/116 103/132/116 118/138/116 119/140/116
f 112/118/117 111/133/117 126/139/117 127/141/117
f 105/120/118 104/134/118 119/140/118 120/142/118
f 113/119/119 112/118/119 127/141/119 128/143/119
f 106/121/120 105/120/120 120/142/120 121/144/120
f 99/123/121 1/145/121 114/146/121
f 8/147/122 113/119/122 128/143/122
f 107/125/123 106/121/123 121/144/123 122/148/123
f 100/126/124 99/123/124 114/146/124 115/149/124
f 108/127/125 107/125/125 122/148/125 123/150/125
f 101/128/126 100/126/126 115/149/126 116/151/126
f 109/129/127 108/127/127 123/150/127 124/135/127
f 102/130/128 101/128/128 116/151/128 117/137/128
f 114/146/129 1/152/129 129/153/129
f 8/154/130 128/143/130 143/155/130
f 122/148/131 121/144/131 136/156/131 137/157/131
f 115/149/132 114/146/132 129/153/132 130/158/132
f 123/150/133 122/148/133 137/157/133 138/159/133
f 116/151/134 115/149/134 130/158/134 131/160/134
f 124/135/135 123/150/135 138/159/135 139/161/135
f 117/137/136 116/151/136 131/160/136 132/162/136
f 125/136/137 124/135/137 139/161/137 140/163/137
f 118/138/138 117/137/138 132/162/138 133/164/138
f 126/139/139 125/136/139 140/163/139 141/165/139
f 119/140/140 118/138/140 133/164/140 134/166/140
f 127/141/141 126/139/141 141/165/141 142/167/141
f 120/142/142 119/140/142 134/166/142 135/168/142
f 128/143/143 127/141/143 142/167/143 143/155/143
f 121/144/144 120/142/144 135/168/144 136/156/144
f 133/164/145 132/162/145 147/169/145 148/170/145
f 141/165/146 140/163/146 155/171/146 156/172/146
f 134/166/147 133/164/147 148/170/147 149/173/147
f 142/167/148 141/165/148 156/172/148 157/174/148
f 135/168/149 134/166/149 149/173/149 150/175/149
f 143/155/150 142/167/150 157/174/150 158/176/150
f 136/156/151 135/168/151 150/175/151 151/177/151
f 129/153/152 1/178/152 144/179/152
f 8/180/153 143/155/153 158/176/153
f 137/157/154 136/156/154 151/177/154 152/181/154
f 130/158/155 129/153/155 144/179/155 145/182/155
f 138/159/156 137/157/156 152/181/156 153/183/156
f 131/160/157 130/158/157 145/182/157 146/184/157
f 139/161/158 138/159/158 153/183/158 154/185/158
f 132/162/159 131/160/159 146/184/159 147/169/159
f 140/163/160 139/161/160 154/185/160 155/171/160
f 152/181/161 151/177/161 166/186/161 167/187/161
f 145/182/162 144/179/162 159/188/162 160/189/162
f 153/183/163 152/181/163 167/187/163 168/190/163
f 146/184/164 145/182/164 160/189/164 161/191/164
f 154/185/165 153/183/165 168/190/165 169/192/165
f 147/169/166 146/184/166 161/191/166 162/193/166
f 155/171/167 154/185/167 169/192/167 170/194/167
f 148/170/168 147/169/168 162/193/168 163/195/168
f 156/172/169 155/171/169 170/194/169 171/196/169
f 149/173/170 148/170/170 163/195/170 164/197/170
f 157/174/171 156/172/171 171/196/171 172/198/171
f 150/175/172 149/173/172 164/197/172 165/199/172
f 158/176/173 157/174/173 172/198/173 173/200/173
f 151/177/174 150/175/174 165/199/174 166/186/174
f 144/179/175 1/201/175 159/188/175
f 8/202/176 158/176/176 173/200/176
f 171/196/177 170/194/177 185/203/177 186/204/177
f 164/197/178 163/195/178 178/205/178 179/206/178
f 172/198/179 171/196/179 186/204/179 187/207/179
f 165/199/180 164/197/180 179/206/180 180/208/180
f 173/200/181 172/198/181 187/207/181 188/209/181
f 166/186/182 165/199/182 180/208/182 181/210/182
f 159/188/183 1/211/183 174/212/183
f 8/213/184 173/200/184 188/209/184
f 167/187/185 166/186/185 181/210/185 182/214/185
f 160/189/186 159/188/186 174/212/186 175/215/186
f 168/190/187 167/187/187 182/214/187 183/216/187
f 161/191/188 160/189/188 175/215/188 176/217/188
f 169/192/189 168/190/189 183/216/189 184/218/189
f 162/193/190 161/191/190 176/217/190 177/219/190
f 170/194/191 169/192/191 184/218/191 185/203/191
f 163/195/192 162/193/192 177/219/192 178/205/192
f 175/215/193 174/212/193 189/220/193 190/221/193
f 183/216/194 182/214/194 197/222/194 198/223/194
f 176/217/195 175/215/195 190/221/195 191/224/195
f 184/218/196 183/216/196 198/223/196 199/225/196
f 177/219/197 176/217/197 191/224/197 192/226/197
f 185/203/198 184/218/198 199/225/198 200/227/198
f 178/205/199 177/219/199 192/226/199 193/228/199
f 186/204/200 185/203/200 200/227/200 201/229/200
f 179/206/201 178/205/201 193/228/201 194/230/201
f 187/207/202 186/204/202 201/229/202 202/231/202
f 180/208/203 179/206/203 194/230/203 195/232/203
f 188/209/204 187/207/204 202/231/204 203/233/204
f 181/210/205 180/208/205 195/232/205 196/234/205
f 174/212/206 1/235/206 189/220/206
f 8/236/207 188/209/207 203/233/207
f 182/214/208 181/210/208 196/234/208 197/222/208
f 194/230/209 193/228/209 208/237/209 209/238/209
f 202/231/210 201/229/210 216/239/210 217/240/210
f 195/232/211 194/230/211 209/238/211 210/241/211
f 203/233/212 202/231/212 217/240/212 218/242/212
f 196/234/213 195/232/213 210/241/213 211/243/213
f 189/220/214 1/244/214 204/245/214
f 8/246/215 203/233/215 218/242/215
f 197/222/216 196/234/216 211/243/216 212/247/216
f 190/221/217 189/220/217 204/245/217 205/248/217
f 198/223/218 197/222/218 212/247/218 213/249/218
f 191/224/219 190/221/219 205/248/219 206/250/219
f 199/225/220 198/223/220 213/249/220 214/251/220
f 192/226/221 191/224/221 206/250/221 207/252/221
f 200/227/222 199/225/222 214/251/222 215/253/222
f 193/228/223 192/226/223 207/252/223 208/237/223
f 201/229/224 200/227/224 215/253/224 216/239/224
f 213/249/225 212/247/225 227/254/225 228/255/225
f 206/250/226 205/248/226 220/256/226 221/257/226
f 214/251/227 213/249/227 228/255/227 229/258/227
f 207/252/228 206/250/228 221/257/228 222/259/228
f 215/253/229 214/251/229 229/258/229 230/260/229
f 208/237/230 207/252/230 222/259/230 223/261/230
f 216/239/231 215/253/231 230/260/231 231/262/231
f 209/238/232 208/237/232 223/261/232 224/263/232
f 217/240/233 216/239/233 231/262/233 232/264/233
f 210/241/234 209/238/234 224/263/234 225/265/234
f 218/242/235 217/240/235 232/264/235 233/266/235
f 211/243/236 210/241/236 225/265/236 226/267/236
f 204/245/237 1/268/237 219/269/237
f 8/270/238 218/242/238 233/266/238
f 212/247/239 211/243/239 226/267/239 227/254/239
f 205/248/240 204/245/240 219/269/240 220/256/240
f 232/264/241 231/262/241 246/271/241 247/272/241
f 225/265/242 224/263/242 239/273/242 240/274/242
f 233/266/243 232/264/243 247/272/243 248/275/243
f 226/267/244 225/265/244 240/274/244 241/276/244
f 219/269/245 1/277/245 234/278/245
f 8/279/246 233/266/246 248/275/246
f 227/254/247 226/267/247 241/276/247 242/280/247
f 220/256/248 219/269/248 234/278/248 235/281/248
f 228/255/249 227/254/249 242/280/249 243/282/249
f 221/257/250 220/256/250 235/281/250 236/283/250
f 229/258/251 228/255/251 243/282/251 244/284/251
f 222/259/252 221/257/252 236/283/252 237/285/252
f 230/260/253 229/258/253 244/284/253 245/286/253
f 223/261/254 222/259/254 237/285/254 238/287/254
f 231/262/255 230/260/255 245/286/255 246/271/255
f 224/263/256 223/261/256 238/287/256 239/273/256
f 244/284/257 243/282/257 258/288/257 259/289/257
f 237/285/258 236/283/258 251/290/258 252/291/258
f 245/286/259 244/284/259 259/289/259 260/292/259
f 238/287/260 237/285/260 252/291/260 253/293/260
f 246/271/261 245/286/261 260/292/261 261/294/261
f 239/273/262 238/287/262 253/293/262 254/295/262
f 247/272/263 246/271/263 261/294/263 262/296/263
f 240/274/264 239/273/264 254/295/264 255/297/264
f 248/275/265 247/272/265 262/296/265 263/298/265
f 241/276/266 240/274/266 255/297/266 256/299/266
f 234/278/267 1/300/267 249/301/267
f 8/302/268 248/275/268 263/298/268
f 242/280/269 241/276/269 256/299/269 257/303/269
f 235/281/270 234/278/270 249/301/270 250/304/270
f 243/282/271 242/280/271 257/303/271 258/288/271
f 236/283/272 235/281/272 250/304/272 251/290/272
f 263/298/273 262/296/273 277/305/273 278/306/273
f 256/299/274 255/297/274 270/307/274 271/308/274
f 249/301/275 1/309/275 264/310/275
f 8/311/276 263/298/276 278/306/276
f 257/303/277 256/299/277 271/308/277 272/312/277
f 250/304/278 249/301/278 264/310/278 265/313/278
f 258/288/279 257/303/279 272/312/279 273/314/279
f 251/290/280 250/304/280 265/313/280 266/315/280
f 259/289/281 258/288/281 273/314/281 274/316/281
f 252/291/282 251/290/282 266/315/282 267/317/282
f 260/292/283 259/289/283 274/316/283 275/318/283
f 253/293/284 252/291/284 267/317/284 268/319/284
f 261/294/285 260/292/285 275/318/285 276/320/285
f 254/295/286 253/293/286 268/319/286 269/321/286
f 262/296/287 261/294/287 276/320/287 277/305/287
f 255/297/288 254/295/288 269/321/288 270/307/288
f 267/317/289 266/315/289 281/322/289 282/323/289
f 275/318/290 274/316/290 289/324/290 290/325/290
f 268/319/291 267/317/291 282/323/291 283/326/291
f 276/320/292 275/318/292 290/325/292 291/327/292
f 269/321/293 268/319/293 283/326/293 284/328/293
f 277/305/294 276/320/294 291/327/294 292/329/294
f 270/307/295 269/321/295 284/328/295 285/330/295
f 278/306/296 277/305/296 292/329/296 293/331/296
f 271/308/297 270/307/297 285/330/297 286/332/297
f 264/310/298 1/333/298 279/334/298
f 8/335/299 278/306/299 293/331/299
f 272/312/300 271/308/300 286/332/300 287/336/300
f 265/313/301 264/310/301 279/334/301 280/337/301
f 273/314/302 272/312/302 287/336/302 288/338/302
f 266/315/303 265/313/303 280/337/303 281/322/303
f 274/316/304 273/314/304 288/338/304 289/324/304
f 286/332/305 285/330/305 300/339/305 301/340/305
f 279/334/306 1/341/306 294/342/306
f 8/343/307 293/331/307 308/344/307
f 287/336/308 286/332/308 301/340/308 302/345/308
f 280/337/309 279/334/309 294/342/309 295/346/309
f 288/338/310 287/336/310 302/345/310 303/347/310
f 281/322/311 280/337/311 295/346/311 296/348/311
f 289/324/312 288/338/312 303/347/312 304/349/312
f 282/323/313 281/322/313 296/348/313 297/350/313
f 290/325/314 289/324/314 304/349/314 305/351/314
f 283/326/315 282/323/315 297/350/315 298/352/315
f 291/327/316 290/325/316 305/351/316 306/353/316
f 284/328/317 283/326/317 298/352/317 299/354/317
f 292/329/318 291/327/318 306/353/318 307/355/318
f 285/330/319 284/328/319 299/354/319 300/339/319
f 293/331/320 292/329/320 307/355/320 308/344/320
f 305/351/321 304/349/321 319/356/321 320/357/321
f 298/352/322 297/350/322 312/358/322 313/359/322
f 306/353/323 305/351/323 320/357/323 321/360/323
f 299/354/324 298/352/324 313/359/324 314/361/324
f 307/355/325 306/353/325 321/360/325 322/362/325
f 300/339/326 299/354/326 314/361/326 315/363/326
f 308/344/327 307/355/327 322/362/327 323/364/327
f 301/340/328 300/339/328 315/363/328 316/365/328
f 294/342/329 1/366/329 309/367/329
f 8/368/330 308/344/330 323/364/330
f 302/345/331 301/340/331 316/365/331 317/369/331
f 295/346/332 294/342/332 309/367/332 310/370/332
f 303/347/333 302/345/333 317/369/333 318/371/333
f 296/348/334 295/346/334 310/370/334 311/372/334
f 304/349/335 303/347/335 318/371/335 319/356/335
f 297/350/336 296/348/336 311/372/336 312/358/336
f 309/367/337 1/373/337 324/374/337
f 8/375/338 323/364/338 338/376/338
f 317/369/339 316/365/339 331/377/339 332/378/339
f 310/370/340 309/367/340 324/374/340 325/379/340
f 318/371/341 317/369/341 332/378/341 333/380/341
f 311/372/342 310/370/342 325/379/342 326/381/342
f 319/356/343 318/371/343 333/380/343 334/382/343
f 312/358/344 311/372/344 326/381/344 327/383/344
f 320/357/345 319/356/345 334/382/345 335/384/345
f 313/359/346 312/358/346 327/383/346 328/385/346
f 321/360/347 320/357/347 335/384/347 336/386/347
f 314/361/348 313/359/348 328/385/348 329/387/348
f 322/362/349 321/360/349 336/386/349 337/388/349
f 315/363/350 314/361/350 329/387/350 330/389/350
f 323/364/351 322/362/351 337/388/351 338/376/351
f 316/365/352 315/363/352 330/389/352 331/377/352
f 328/385/353 327/383/353 342/390/353 343/391/353
f 336/386/354 335/384/354 350/392/354 351/393/354
f 329/387/355 328/385/355 343/391/355 344/394/355
f 337/388/356 336/386/356 351/393/356 352/395/356
f 330/389/357 329/387/357 344/394/357 345/396/357
f 338/376/358 337/388/358 352/395/358 353/397/358
f 331/377/359 330/389/359 345/396/359 346/398/359
f 324/374/360 1/399/360 339/400/360
f 8/401/361 338/376/361 353/397/361
f 332/378/362 331/377/362 346/398/362 347/402/362
f 325/379/363 324/374/363 339/400/363 340/403/363
f 333/380/364 332/378/364 347/402/364 348/404/364
f 326/381/365 325/379/365 340/403/365 341/405/365
f 334/382/366 333/380/366 348/404/366 349/406/366
f 327/383/367 326/381/367 341/405/367 342/390/367
f 335/384/368 334/382/368 349/406/368 350/392/368
f 347/402/369 346/398/369 361/407/369 362/408/369
f 340/403/370 339/400/370 354/409/370 355/410/370
f 348/404/371 347/402/371 362/408/371 363/411/371
f 341/405/372 340/403/372 355/410/372 356/412/372
f 349/406/373 348/404/373 363/411/373 364/413/373
f 342/390/374 341/405/374 356/412/374 357/414/374
f 350/392/375 349/406/375 364/413/375 365/415/375
f 343/391/376 342/390/376 357/414/376 358/416/376
f 351/393/377 350/392/377 365/415/377 366/417/377
f 344/394/378 343/391/378 358/416/378 359/418/378
f 352/395/379 351/393/379 366/417/379 367/419/379
f 345/396/380 344/394/380 359/418/380 360/420/380
f 353/397/381 352/395/381 367/419/381 368/421/381
f 346/398/382 345/396/382 360/420/382 361/407/382
f 339/400/383 1/422/383 354/409/383
f 8/423/384 353/397/384 368/421/384
f 366/424/385 365/425/385 380/426/385 381/427/385
f 359/428/386 358/429/386 373/430/386 374/431/386
f 367/432/387 366/424/387 381/427/387 382/433/387
f 360/434/388 359/428/388 374/431/388 375/435/388
f 368/436/389 367/432/389 382/433/389 383/437/389
f 361/438/390 360/434/390 375/435/390 376/439/390
f 354/440/391 1/441/391 369/442/391
f 8/443/392 368/436/392 383/437/392
f 362/444/393 361/438/393 376/439/393 377/445/393
f 355/446/394 354/440/394 369/442/394 370/447/394
f 363/448/395 362/444/395 377/445/395 378/449/395
f 356/450/396 355/446/396 370/447/396 371/451/396
f 364/452/397 363/448/397 378/449/397 379/453/397
f 357/454/398 356/450/398 371/451/398 372/455/398
f 365/425/399 364/452/399 379/453/399 380/426/399
f 358/429/400 357/454/400 372/455/400 373/430/400
f 378/449/401 377/445/401 392/456/401 393/457/401
f 371/451/402 370/447/402 385/458/402 386/459/402
f 379/453/403 378/449/403 393/457/403 394/460/403
f 372/455/404 371/451/404 386/459/404 387/461/404
f 380/426/405 379/453/405 394/460/405 395/462/405
f 373/430/406 372/455/406 387/461/406 388/463/406
f 381/427/407 380/426/407 395/462/407 396/464/407
f 374/431/408 373/430/408 388/463/408 389/465/408
f 382/433/409 381/427/409 396/464/409 397/466/409
f 375/435/410 374/431/410 389/465/410 390/467/410
f 383/437/411 382/433/411 397/466/411 398/468/411
f 376/439/412 375/435/412 390/467/412 391/469/412
f 369/442/413 1/470/413 384/471/413
f 8/472/414 383/437/414 398/468/414
f 377/445/415 376/439/415 391/469/415 392/456/415
f 370/447/416 369/442/416 384/471/416 385/458/416
f 397/466/417 396/464/417 411/473/417 412/474/417
f 390/467/418 389/465/418 404/475/418 405/476/418
f 398/468/419 397/466/419 412/474/419 413/477/419
f 391/469/420 390/467/420 405/476/420 406/478/420
f 384/471/421 1/479/421 399/480/421
f 8/481/422 398/468/422 413/477/422
f 392/456/423 391/469/423 406/478/423 407/482/423
f 385/458/424 384/471/424 399/480/424 400/483/424
f 393/457/425 392/456/425 407/482/425 408/484/425
f 386/459/426 385/458/426 400/483/426 401/485/426
f 394/460/427 393/457/427 408/484/427 409/486/427
f 387/461/428 386/459/428 401/485/428 402/487/428
f 395/462/429 394/460/429 409/486/429 410/488/429
f 388/463/430 387/461/430 402/487/430 403/489/430
f 396/464/431 395/462/431 410/488/431 411/473/431
f 389/465/432 388/463/432 403/489/432 404/475/432
f 401/485/433 400/483/433 415/490/433 416/491/433
f 409/486/434 408/484/434 423/492/434 424/493/434
f 402/487/435 401/485/435 416/491/435 417/494/435
f 410/488/436 409/486/436 424/493/436 425/495/436
f 403/489/437 402/487/437 417/494/437 418/496/437
f 411/473/438 410/488/438 425/495/438 426/497/438
f 404/475/439 403/489/439 418/496/439 419/498/439
f 412/474/440 411/473/440 426/497/440 427/499/440
f 405/476/441 404/475/441 419/498/441 420/500/441
f 413/477/442 412/474/442 427/499/442 428/501/442
f 406/478/443 405/476/443 420/500/443 421/502/443
f 399/480/444 1/503/444 414/504/444
f 8/505/445 413/477/445 428/501/445
f 407/482/446 406/478/446 421/502/446 422/506/446
f 400/483/447 399/480/447 414/504/447 415/490/447
f 408/484/448 407/482/448 422/506/448 423/492/448
f 420/500/449 419/498/449 434/507/449 435/508/449
f 428/501/450 427/499/450 442/509/450 443/510/450
f 421/502/451 420/500/451 435/508/451 436/511/451
f 414/504/452 1/512/452 429/513/452
f 8/514/453 428/501/453 443/510/453
f 422/506/454 421/502/454 436/511/454 437/515/454
f 415/490/455 414/504/455 429/513/455 430/516/455
f 423/492/456 422/506/456 437/515/456 438/517/456
f 416/491/457 415/490/457 430/516/457 431/518/457
f 424/493/458 423/492/458 438/517/458 439/519/458
f 417/494/459 416/491/459 431/518/459 432/520/459
f 425/495/460 424/493/460 439/519/460 440/521/460
f 418/496/461 417/494/461 432/520/461 433/522/461
f 426/497/462 425/495/462 440/521/462 441/523/462
f 419/498/463 418/496/463 433/522/463 434/507/463
f 427/499/464 426/497/464 441/523/464 442/509/464
f 439/519/465 438/517/465 453/524/465 454/525/465
f 432/520/466 431/518/466 446/526/466 447/527/466
f 440/521/467 439/519/467 454/525/467 455/528/467
f 433/522/468 432/520/468 447/527/468 448/529/468
f 441/523/469 440/521/469 455/528/469 456/530/469
f 434/507/470 433/522/470 448/529/470 449/531/470
f 442/509/471 441/523/471 456/530/471 457/532/471
f 435/508/472 434/507/472 449/531/472 450/533/472
f 443/510/473 442/509/473 457/532/473 458/534/473
f 436/511/474 435/508/474 450/533/474 451/535/474
f 429/513/475 1/536/475 444/537/475
f 8/538/476 443/510/476 458/534/476
f 437/515/477 436/511/477 451/535/477 452/539/477
f 430/516/478 429/513/478 444/537/478 445/540/478
f 438/517/479 437/515/479 452/539/479 453/524/479
f 431/518/480 430/516/480 445/540/480 446/526/480
f 458/534/481 457/532/481 472/541/481 473/542/481
f 451/535/482 450/533/482 465/543/482 466/544/482
f 444/537/483 1/545/483 459/546/483
f 8/547/484 458/534/484 473/542/484
f 452/539/485 451/535/485 466/544/485 467/548/485
f 445/540/486 444/537/486 459/546/486 460/549/486
f 453/524/487 452/539/487 467/548/487 468/550/487
f 446/526/488 445/540/488 460/549/488 461/551/488
f 454/525/489 453/524/489 468/550/489 469/552/489
f 447/527/490 446/526/490 461/551/490 462/553/490
f 455/528/491 454/525/491 469/552/491 470/554/491
f 448/529/492 447/527/492 462/553/492 463/555/492
f 456/530/493 455/528/493 470/554/493 471/556/493
f 449/531/494 448/529/494 463/555/494 464/557/494
f 457/532/495 456/530/495 471/556/495 472/541/495
f 450/533/496 449/531/496 464/557/496 465/543/496
f 462/553/497 461/551/497 2/6/497 476/5/497
f 470/554/498 469/552/498 7/1/498 479/9/498
f 463/555/499 462/553/499 476/5/499 3/11/499
f 471/556/500 470/554/500 479/9/500 480/13/500
f 464/557/501 463/555/501 3/11/501 477/15/501
f 472/541/502 471/556/502 480/13/502 481/17/502
f 465/543/503 464/557/503 477/15/503 4/19/503
f 473/542/504 472/541/504 481/17/504 482/21/504
f 466/544/505 465/543/505 4/19/505 5/23/505
f 459/546/506 1/558/506 474/25/506
f 8/559/507 473/542/507 482/21/507
f 467/548/508 466/544/508 5/23/508 6/29/508
f 460/549/509 459/546/509 474/25/509 475/31/509
f 468/550/510 467/548/510 6/29/510 478/2/510
f 461/551/511 460/549/511 475/31/511 2/6/511
f 469/552/512 468/550/512 478/2/512 7/1/512
